<?xml version="1.0" standalone="no"?>
<!DOCTYPE svg PUBLIC "-//W3C//DTD SVG 20010904//EN"
 "http://www.w3.org/TR/2001/REC-SVG-20010904/DTD/svg10.dtd">
<svg version="1.0" xmlns="http://www.w3.org/2000/svg"
 width="64.000000pt" height="64.000000pt" viewBox="0 0 64.000000 64.000000"
 preserveAspectRatio="xMidYMid meet">

<g transform="translate(0.000000,64.000000) scale(0.100000,-0.100000)"
fill="#000000" stroke="none">
<path d="M245 631 c-92 -24 -173 -90 -215 -176 -20 -41 -25 -65 -25 -135 0
-79 3 -90 36 -150 82 -149 262 -211 411 -141 52 25 63 41 43 67 -12 18 -15 17
-62 -6 -99 -50 -232 -25 -305 59 -44 50 -61 97 -61 171 -1 145 107 254 253
254 138 0 239 -96 257 -245 7 -59 10 -64 33 -64 24 0 25 2 24 70 -2 163 -129
293 -294 301 -36 2 -78 0 -95 -5z"/>
<path d="M356 361 l-80 -80 -33 30 c-38 33 -68 37 -77 12 -5 -12 9 -33 47 -71
46 -45 57 -52 73 -44 11 6 59 51 107 101 78 80 87 92 77 110 -6 12 -16 21 -23
21 -7 0 -48 -36 -91 -79z"/>
</g>
</svg>
