<?xml version="1.0" standalone="no"?>
<!DOCTYPE svg PUBLIC "-//W3C//DTD SVG 20010904//EN"
 "http://www.w3.org/TR/2001/REC-SVG-20010904/DTD/svg10.dtd">
<svg version="1.0" xmlns="http://www.w3.org/2000/svg"
 width="512.000000pt" height="512.000000pt" viewBox="0 0 512.000000 512.000000"
 preserveAspectRatio="xMidYMid meet">

<g transform="translate(0.000000,512.000000) scale(0.100000,-0.100000)"
fill="#000000" stroke="none">
<path d="M2380 5114 c-19 -2 -78 -9 -130 -15 -298 -34 -640 -144 -912 -294
-631 -350 -1086 -942 -1258 -1637 -56 -226 -65 -317 -64 -618 0 -251 3 -287
27 -420 127 -705 516 -1303 1107 -1700 314 -211 664 -344 1070 -407 159 -24
527 -24 695 0 554 81 1057 331 1446 717 415 413 669 923 744 1493 20 157 20
497 0 654 -75 571 -329 1082 -745 1494 -389 386 -894 637 -1440 715 -108 15
-461 27 -540 18z m540 -229 c847 -134 1555 -714 1855 -1520 49 -131 98 -331
120 -485 22 -151 25 -460 6 -600 -71 -529 -287 -979 -649 -1351 -367 -379
-820 -613 -1344 -696 -156 -25 -527 -25 -682 0 -598 95 -1132 403 -1498 863
-205 258 -373 603 -448 918 -81 340 -81 752 0 1092 58 244 188 543 326 749
394 588 1004 959 1714 1045 114 13 477 4 600 -15z"/>
<path d="M3905 3591 c-16 -10 -437 -427 -935 -925 l-905 -906 -425 425 -426
425 -43 0 c-60 0 -101 -41 -101 -102 l0 -43 478 -477 c436 -437 480 -478 510
-478 18 0 45 6 60 14 43 23 1930 1917 1942 1950 22 60 -30 136 -94 136 -17 0
-44 -9 -61 -19z"/>
</g>
</svg>
