<?xml version="1.0" standalone="no"?>
<!DOCTYPE svg PUBLIC "-//W3C//DTD SVG 20010904//EN"
 "http://www.w3.org/TR/2001/REC-SVG-20010904/DTD/svg10.dtd">
<svg version="1.0" xmlns="http://www.w3.org/2000/svg"
 width="64.000000pt" height="64.000000pt" viewBox="0 0 64.000000 64.000000"
 preserveAspectRatio="xMidYMid meet">

<g transform="translate(0.000000,64.000000) scale(0.100000,-0.100000)"
fill="#000000" stroke="none">
<path d="M197 633 c-4 -3 -7 -12 -7 -20 0 -10 18 -13 70 -13 63 0 70 2 70 20
0 18 -7 20 -63 20 -35 0 -67 -3 -70 -7z"/>
<path d="M195 570 c-13 -21 8 -30 71 -30 57 0 64 2 64 20 0 18 -7 20 -64 20
-36 0 -68 -4 -71 -10z"/>
<path d="M0 525 c0 -25 1 -25 85 -25 84 0 85 0 85 25 0 25 -1 25 -85 25 -84 0
-85 0 -85 -25z"/>
<path d="M420 533 c-28 -9 -79 -14 -137 -13 l-93 1 0 -196 0 -195 70 0 70 0 1
178 c1 97 4 167 6 155 2 -13 6 -23 9 -23 4 0 151 39 171 45 9 3 10 12 2 35
-12 34 -28 37 -99 13z"/>
<path d="M0 305 l0 -175 85 0 85 0 0 175 0 175 -85 0 -85 0 0 -175z m135 90
l0 -50 -50 0 -50 0 -3 39 c-5 60 1 68 55 64 l48 -3 0 -50z"/>
<path d="M480 454 c-25 -7 -65 -18 -89 -24 -28 -7 -40 -15 -34 -21 10 -10 159
25 176 41 16 15 -8 17 -53 4z"/>
<path d="M447 400 c-38 -10 -71 -21 -75 -25 -3 -3 7 -58 23 -121 22 -90 32
-114 43 -109 8 3 45 13 81 22 36 9 70 19 75 24 5 4 -4 56 -20 118 -21 81 -33
111 -44 110 -8 0 -46 -9 -83 -19z"/>
<path d="M516 146 c-81 -23 -92 -31 -77 -54 7 -11 24 -9 92 9 46 12 86 24 87
25 6 4 -9 44 -16 43 -4 -1 -43 -11 -86 -23z"/>
<path d="M0 100 c0 -6 35 -10 85 -10 50 0 85 4 85 10 0 6 -35 10 -85 10 -50 0
-85 -4 -85 -10z"/>
<path d="M190 100 c0 -6 30 -10 70 -10 40 0 70 4 70 10 0 6 -30 10 -70 10 -40
0 -70 -4 -70 -10z"/>
<path d="M523 78 c-74 -20 -86 -33 -64 -66 7 -11 23 -10 87 8 44 12 82 25 86
29 13 11 -4 51 -21 50 -9 0 -49 -10 -88 -21z"/>
<path d="M0 30 l0 -30 85 0 85 0 0 30 0 30 -85 0 -85 0 0 -30z"/>
<path d="M192 33 c3 -27 5 -28 71 -31 l67 -3 0 31 0 30 -71 0 -70 0 3 -27z"/>
</g>
</svg>
