<?xml version="1.0" standalone="no"?>
<!DOCTYPE svg PUBLIC "-//W3C//DTD SVG 20010904//EN"
 "http://www.w3.org/TR/2001/REC-SVG-20010904/DTD/svg10.dtd">
<svg version="1.0" xmlns="http://www.w3.org/2000/svg"
 width="512.000000pt" height="512.000000pt" viewBox="0 0 512.000000 512.000000"
 preserveAspectRatio="xMidYMid meet">

<g transform="translate(0.000000,512.000000) scale(0.100000,-0.100000)"
fill="#000000" stroke="none">
<path d="M2380 5114 c-19 -2 -78 -9 -130 -14 -230 -25 -520 -106 -748 -208
-143 -64 -340 -181 -479 -285 -140 -104 -406 -370 -510 -510 -268 -360 -435
-773 -495 -1227 -16 -123 -16 -497 0 -620 60 -454 227 -867 495 -1227 104
-140 370 -406 510 -510 360 -268 773 -435 1227 -495 123 -16 497 -16 620 0
454 60 867 227 1227 495 140 104 406 370 510 510 268 360 435 773 495 1227 16
123 16 497 0 620 -60 454 -227 867 -495 1227 -104 140 -370 406 -510 510 -357
266 -776 436 -1217 493 -88 12 -438 21 -500 14z m510 -309 c386 -59 737 -208
1055 -448 114 -86 339 -314 427 -433 302 -408 452 -859 452 -1364 0 -354 -68
-660 -214 -967 -121 -253 -249 -434 -449 -634 -201 -200 -353 -310 -601 -433
-325 -161 -625 -230 -1000 -230 -375 0 -675 69 -1000 230 -248 123 -400 233
-601 433 -358 358 -566 774 -645 1291 -24 157 -24 463 0 620 38 248 99 453
196 657 121 253 249 434 449 634 201 201 353 310 603 434 258 128 500 195 833
229 81 8 393 -4 495 -19z"/>
<path d="M1474 3716 c-61 -27 -94 -97 -79 -168 6 -27 100 -126 483 -510 l477
-478 -477 -477 c-414 -415 -477 -483 -483 -515 -20 -108 64 -193 172 -174 34
7 91 60 516 484 l477 477 473 -472 c259 -259 482 -476 494 -482 51 -26 136 -3
171 46 27 39 36 75 27 121 -6 32 -65 96 -483 515 l-477 477 477 478 c424 424
477 481 484 515 19 108 -70 194 -178 172 -27 -6 -126 -100 -511 -483 l-477
-477 -473 472 c-259 260 -485 477 -500 483 -38 13 -75 12 -113 -4z"/>
</g>
</svg>
