<?xml version="1.0" standalone="no"?>
<!DOCTYPE svg PUBLIC "-//W3C//DTD SVG 20010904//EN"
 "http://www.w3.org/TR/2001/REC-SVG-20010904/DTD/svg10.dtd">
<svg version="1.0" xmlns="http://www.w3.org/2000/svg"
 width="64.000000pt" height="64.000000pt" viewBox="0 0 64.000000 64.000000"
 preserveAspectRatio="xMidYMid meet">

<g transform="translate(0.000000,64.000000) scale(0.100000,-0.100000)"
fill="#000000" stroke="none">
<path d="M223 622 c-109 -39 -178 -112 -210 -221 -29 -102 4 -228 82 -306 122
-121 328 -121 450 0 91 92 118 241 64 356 -69 146 -241 223 -386 171z m214
-60 c51 -27 98 -73 126 -126 31 -58 31 -174 0 -232 -28 -53 -74 -99 -127 -127
-58 -31 -174 -31 -232 0 -217 115 -197 413 33 499 51 19 148 12 200 -14z"/>
<path d="M213 414 c-4 -10 8 -30 33 -55 l38 -39 -37 -38 c-40 -41 -46 -59 -21
-69 10 -4 29 8 54 32 l39 38 41 -36 c44 -41 58 -45 67 -21 4 10 -8 30 -33 55
l-38 39 37 38 c68 69 34 103 -35 35 l-38 -37 -38 37 c-41 40 -59 46 -69 21z"/>
</g>
</svg>
