<svg version="1.0" xmlns="http://www.w3.org/2000/svg"
 width="64.000000pt" height="64.000000pt" viewBox="0 0 64.000000 64.000000"
 preserveAspectRatio="xMidYMid meet">

<g transform="translate(0.000000,64.000000) scale(0.100000,-0.100000)"
fill="#000000" stroke="none">
<path d="M4 627 c-2 -7 -3 -78 -2 -157 l3 -145 63 -3 c74 -4 92 7 92 54 0 35
20 54 58 54 10 0 27 8 36 19 24 26 108 26 132 0 9 -11 27 -19 40 -19 31 0 54
-26 54 -59 0 -42 20 -52 92 -49 l63 3 0 155 0 155 -313 3 c-250 2 -314 0 -318
-11z m345 -71 c7 -8 11 -27 9 -43 -3 -25 -7 -28 -38 -28 -31 0 -35 3 -38 28
-6 49 39 77 67 43z"/>
<path d="M180 365 c0 -25 4 -45 9 -45 6 0 11 -17 13 -37 l3 -38 115 0 115 0 3
38 c2 20 7 37 13 37 5 0 9 20 9 45 l0 45 -140 0 -140 0 0 -45z"/>
<path d="M82 208 c-29 -29 -2 -72 40 -66 17 2 24 11 26 32 5 41 -37 63 -66 34z"/>
<path d="M290 206 c-6 -8 -10 -25 -8 -38 2 -19 9 -23 38 -23 29 0 36 4 38 23
6 44 -41 70 -68 38z"/>
<path d="M502 211 c-8 -4 -12 -21 -10 -37 2 -25 7 -29 32 -29 36 0 56 27 40
53 -13 19 -43 26 -62 13z"/>
<path d="M54 109 c-23 -26 -23 -78 1 -95 28 -21 98 -18 118 4 21 22 22 62 3
87 -20 27 -98 30 -122 4z"/>
<path d="M260 102 c-40 -51 -10 -102 60 -102 70 0 100 51 60 102 -15 20 -29
25 -60 25 -31 0 -45 -5 -60 -25z"/>
<path d="M469 109 c-24 -24 -24 -71 -1 -92 23 -21 91 -22 117 -3 23 17 24 69
1 95 -23 25 -92 25 -117 0z"/>
</g>
</svg>
