<?xml version="1.0" standalone="no"?>
<!DOCTYPE svg PUBLIC "-//W3C//DTD SVG 20010904//EN"
 "http://www.w3.org/TR/2001/REC-SVG-20010904/DTD/svg10.dtd">
<svg version="1.0" xmlns="http://www.w3.org/2000/svg"
 width="64.000000pt" height="64.000000pt" viewBox="0 0 64.000000 64.000000"
 preserveAspectRatio="xMidYMid meet">

<g transform="translate(0.000000,64.000000) scale(0.100000,-0.100000)"
fill="#000000" stroke="none">
<path d="M0 530 c0 -67 4 -110 10 -110 6 0 10 40 10 100 l0 100 300 0 300 0 0
-120 0 -120 -185 0 c-119 0 -185 -4 -185 -10 0 -7 66 -9 193 -8 l192 3 3 138
3 137 -321 0 -320 0 0 -110z"/>
<path d="M132 584 c-13 -9 -22 -26 -22 -42 0 -19 -8 -32 -28 -43 -22 -12 -32
-30 -45 -76 -22 -77 -21 -90 5 -99 16 -5 27 -1 40 16 18 22 18 21 18 -44 l0
-66 -35 0 c-41 0 -60 -26 -50 -70 3 -16 2 -31 -4 -35 -6 -3 -11 -33 -11 -66
l0 -60 63 3 62 3 3 47 c2 26 -2 56 -8 68 -10 19 -8 20 32 20 33 0 39 -3 30
-12 -7 -7 -12 -38 -12 -70 l0 -58 65 0 65 0 0 53 c0 30 -6 62 -14 72 -10 14
-11 25 -5 38 15 27 2 54 -31 66 l-30 10 0 105 0 105 60 32 c47 25 60 37 60 55
0 35 -33 39 -85 10 l-45 -25 0 24 c0 20 -32 55 -50 55 -3 0 -16 -7 -28 -16z
m55 -30 c3 -8 -2 -23 -11 -32 -15 -15 -17 -15 -32 0 -21 21 -11 48 16 48 11 0
23 -7 27 -16z m133 -16 c0 -7 -26 -26 -58 -43 l-57 -30 -6 -125 c-3 -69 -10
-138 -16 -155 -10 -26 -11 -17 -12 63 -1 54 -5 92 -11 92 -6 0 -10 -37 -10
-90 0 -79 -2 -90 -17 -90 -16 0 -18 13 -18 142 0 147 -10 181 -31 108 -20 -67
-24 -74 -34 -64 -13 13 14 107 36 129 9 9 34 15 62 15 32 1 65 10 102 30 63
33 70 35 70 18z m-232 -340 c14 -14 -2 -48 -22 -48 -20 0 -37 25 -30 44 7 19
35 21 52 4z m176 -4 c7 -19 -10 -44 -29 -44 -19 0 -36 25 -29 44 3 9 16 16 29
16 13 0 26 -7 29 -16z m-164 -83 c5 -11 10 -36 10 -55 0 -36 0 -36 -45 -36
l-45 0 0 43 c0 24 5 48 12 55 18 18 56 14 68 -7z m168 7 c7 -7 12 -31 12 -55
l0 -43 -45 0 -45 0 0 43 c0 47 13 67 45 67 12 0 26 -5 33 -12z"/>
<path d="M350 580 c0 -6 44 -10 111 -10 71 0 108 4 104 10 -3 6 -52 10 -111
10 -63 0 -104 -4 -104 -10z"/>
<path d="M380 510 c0 -6 43 -10 110 -10 67 0 110 4 110 10 0 6 -43 10 -110 10
-67 0 -110 -4 -110 -10z"/>
<path d="M340 450 c0 -6 42 -10 105 -10 63 0 105 4 105 10 0 6 -42 10 -105 10
-63 0 -105 -4 -105 -10z"/>
<path d="M366 214 c-18 -17 -20 -32 -7 -53 6 -10 5 -22 -5 -35 -8 -11 -14 -44
-14 -73 l0 -53 65 0 65 0 0 59 c0 41 -5 62 -15 71 -11 9 -13 16 -5 24 26 26
-3 76 -45 76 -13 0 -31 -7 -39 -16z m68 -20 c7 -19 -10 -44 -29 -44 -19 0 -36
25 -29 44 8 21 50 21 58 0z m4 -76 c7 -7 12 -31 12 -55 l0 -43 -45 0 -45 0 0
43 c0 47 13 67 45 67 12 0 26 -5 33 -12z"/>
<path d="M534 206 c-11 -18 -13 -30 -6 -42 7 -13 6 -24 -5 -40 -9 -14 -13 -40
-11 -71 l3 -48 63 -3 62 -3 0 60 c0 33 -5 63 -11 66 -6 4 -7 19 -4 35 14 65
-55 99 -91 46z m70 -12 c7 -19 -10 -44 -30 -44 -20 0 -36 34 -22 48 17 17 45
15 52 -4z m4 -76 c7 -7 12 -31 12 -55 l0 -43 -45 0 c-45 0 -45 0 -45 36 0 19
5 44 10 55 12 21 50 25 68 7z"/>
</g>
</svg>
