<?xml version="1.0" standalone="no"?>
<!DOCTYPE svg PUBLIC "-//W3C//DTD SVG 20010904//EN"
 "http://www.w3.org/TR/2001/REC-SVG-20010904/DTD/svg10.dtd">
<svg version="1.0" xmlns="http://www.w3.org/2000/svg"
 width="64.000000pt" height="64.000000pt" viewBox="0 0 64.000000 64.000000"
 preserveAspectRatio="xMidYMid meet">

<g transform="translate(0.000000,64.000000) scale(0.100000,-0.100000)"
fill="#000000" stroke="none">
<path d="M17 622 c-15 -16 -17 -52 -17 -304 0 -263 1 -286 18 -301 16 -15 47
-17 225 -17 251 0 247 -2 247 114 l0 73 -47 -23 c-55 -28 -85 -30 -108 -8 -32
32 -2 99 85 189 61 62 70 76 70 108 l0 36 -72 3 -73 3 -3 73 -3 72 -153 0
c-135 0 -155 -2 -169 -18z m353 -187 c0 -13 -23 -15 -145 -15 -122 0 -145 2
-145 15 0 13 23 15 145 15 122 0 145 -2 145 -15z m-75 -75 c0 -12 -20 -16
-107 -18 -86 -2 -108 0 -108 11 0 25 13 28 114 25 82 -2 101 -6 101 -18z m3
-77 c3 -10 -23 -13 -107 -13 -93 0 -111 2 -111 15 0 13 16 15 107 13 74 -2
108 -7 111 -15z m-3 -73 c0 -12 -20 -16 -107 -18 -86 -2 -108 0 -108 11 0 25
13 28 114 25 82 -2 101 -6 101 -18z m75 -115 c0 -12 -14 -15 -70 -15 -56 0
-70 3 -70 15 0 12 14 15 70 15 56 0 70 -3 70 -15z"/>
<path d="M370 585 l0 -55 60 0 61 0 -16 29 c-16 31 -74 81 -93 81 -8 0 -12
-20 -12 -55z"/>
<path d="M567 432 c-16 -18 -16 -20 8 -42 24 -23 25 -23 45 -5 12 11 20 28 18
39 -4 28 -48 33 -71 8z"/>
<path d="M462 327 l-63 -63 26 -24 26 -24 62 62 62 62 -25 25 -26 25 -62 -63z"/>
<path d="M367 208 c-8 -28 -4 -32 29 -24 25 7 26 8 9 26 -23 26 -31 25 -38 -2z"/>
</g>
</svg>
