<?xml version="1.0" standalone="no"?>
<!DOCTYPE svg PUBLIC "-//W3C//DTD SVG 20010904//EN"
 "http://www.w3.org/TR/2001/REC-SVG-20010904/DTD/svg10.dtd">
<svg version="1.0" xmlns="http://www.w3.org/2000/svg"
 width="512.000000pt" height="512.000000pt" viewBox="0 0 512.000000 512.000000"
 preserveAspectRatio="xMidYMid meet">

<g transform="translate(0.000000,512.000000) scale(0.100000,-0.100000)"
fill="#000000" stroke="none">
<path d="M4420 5109 c-57 -11 -143 -45 -197 -78 -47 -30 -2287 -2252 -2327
-2309 -22 -33 -39 -100 -108 -445 -75 -377 -80 -411 -69 -449 16 -52 56 -93
107 -108 37 -11 78 -5 448 69 224 45 410 81 414 81 6 0 1732 1721 2153 2147
166 168 182 187 218 265 83 177 79 359 -11 531 -42 80 -155 193 -235 235 -118
62 -269 85 -393 61z m205 -326 c69 -23 139 -95 159 -164 39 -131 17 -189 -133
-342 l-115 -118 -188 188 -188 188 113 113 c86 86 124 117 162 132 62 24 127
25 190 3z m-505 -668 l185 -185 -880 -880 -880 -880 -228 -46 c-126 -25 -231
-43 -234 -41 -2 3 16 108 41 234 l46 228 878 878 c482 482 879 877 882 877 3
0 88 -83 190 -185z"/>
<path d="M515 4263 c-102 -14 -236 -74 -317 -143 -62 -54 -142 -174 -170 -258
l-23 -67 -3 -1630 c-3 -1815 -7 -1703 66 -1847 49 -100 153 -202 252 -252 144
-70 40 -67 1848 -64 l1627 3 74 27 c185 68 318 210 378 403 17 57 18 117 18
1035 0 906 -1 977 -17 1007 -29 53 -75 78 -140 78 -61 0 -94 -17 -132 -69 -21
-27 -21 -37 -26 -994 -5 -903 -6 -970 -23 -1007 -23 -50 -80 -110 -132 -138
l-40 -22 -1598 -3 c-1070 -1 -1612 1 -1637 8 -64 17 -130 70 -164 130 l-31 55
0 1620 0 1620 22 41 c29 54 79 102 133 128 45 21 52 21 1012 26 957 5 967 5
994 26 45 33 67 70 71 121 5 65 -26 120 -87 151 l-44 22 -941 -1 c-517 -1
-953 -4 -970 -6z"/>
</g>
</svg>
