<?xml version="1.0" standalone="no"?>
<!DOCTYPE svg PUBLIC "-//W3C//DTD SVG 20010904//EN"
 "http://www.w3.org/TR/2001/REC-SVG-20010904/DTD/svg10.dtd">
<svg version="1.0" xmlns="http://www.w3.org/2000/svg"
 width="64.000000pt" height="64.000000pt" viewBox="0 0 64.000000 64.000000"
 preserveAspectRatio="xMidYMid meet">

<g transform="translate(0.000000,64.000000) scale(0.100000,-0.100000)"
fill="#000000" stroke="none">
<path d="M223 622 c-109 -39 -178 -112 -210 -221 -29 -102 4 -228 82 -306 122
-121 328 -121 450 0 91 92 118 241 64 356 -69 146 -241 223 -386 171z m200
-32 c107 -40 187 -156 187 -270 0 -154 -136 -290 -290 -290 -114 0 -230 80
-270 187 -87 233 140 460 373 373z"/>
<path d="M319 464 c-19 -23 1 -49 37 -49 20 0 30 6 32 18 8 40 -43 63 -69 31z"/>
<path d="M268 363 c-24 -6 -23 -23 1 -23 29 0 32 -13 16 -66 -20 -67 -19 -91
6 -105 23 -12 84 -4 94 11 4 6 -5 10 -19 10 -30 0 -32 12 -12 85 13 51 11 75
-8 87 -12 8 -50 9 -78 1z"/>
</g>
</svg>
