<svg version="1.0" xmlns="http://www.w3.org/2000/svg"
 width="64.000000pt" height="64.000000pt" viewBox="0 0 64.000000 64.000000"
 preserveAspectRatio="xMidYMid meet">

<g transform="translate(0.000000,64.000000) scale(0.100000,-0.100000)"
fill="#000000" stroke="none">
<path d="M262 623 c-60 -29 -81 -116 -44 -178 l18 -30 -36 -26 c-27 -19 -44
-25 -68 -21 -31 4 -32 3 -32 -33 0 -27 -7 -44 -25 -61 -32 -29 -32 -58 0 -90
18 -18 25 -36 25 -64 0 -43 -18 -32 165 -101 l55 -20 55 20 c30 12 80 30 110
42 54 20 55 21 55 59 0 28 7 46 25 64 14 14 25 35 25 46 0 12 -11 31 -25 44
-18 17 -25 34 -25 61 0 36 -1 37 -32 33 -24 -4 -41 2 -68 21 l-36 26 18 30
c38 63 16 150 -46 179 -43 20 -72 20 -114 -1z m114 -47 c58 -49 20 -146 -56
-146 -76 0 -114 97 -56 146 15 13 40 24 56 24 16 0 41 -11 56 -24z m14 -202
c22 -9 40 -20 40 -24 0 -4 -25 -17 -55 -28 l-55 -21 -55 21 c-30 11 -55 24
-55 28 0 13 72 39 107 39 18 1 51 -6 73 -15z m-142 -86 l52 -19 0 -111 c0 -84
-3 -109 -12 -106 -7 3 -43 16 -80 29 -65 23 -68 25 -68 56 0 17 5 35 10 38 6
3 10 28 10 55 0 27 -4 52 -10 55 -5 3 -10 15 -10 25 0 17 3 18 28 9 15 -6 51
-20 80 -31z m243 -1 c-14 -14 -15 -104 -1 -112 6 -3 10 -21 10 -38 0 -31 -3
-33 -67 -56 -38 -13 -74 -26 -80 -29 -10 -3 -13 22 -13 106 l0 110 78 30 c63
24 78 27 80 15 2 -8 -1 -20 -7 -26z m-361 -56 c0 -11 -5 -23 -11 -27 -15 -9
-33 12 -26 30 9 23 37 20 37 -3z m415 -6 c0 -28 -29 -25 -33 3 -3 19 0 23 15
20 10 -2 18 -12 18 -23z"/>
</g>
</svg>
