<?xml version="1.0" standalone="no"?>
<!DOCTYPE svg PUBLIC "-//W3C//DTD SVG 20010904//EN"
 "http://www.w3.org/TR/2001/REC-SVG-20010904/DTD/svg10.dtd">
<svg version="1.0" xmlns="http://www.w3.org/2000/svg"
 width="64.000000pt" height="64.000000pt" viewBox="0 0 64.000000 64.000000"
 preserveAspectRatio="xMidYMid meet">

<g transform="translate(0.000000,64.000000) scale(0.100000,-0.100000)"
fill="#000000" stroke="none">
<path d="M133 628 c-43 -21 -47 -94 -6 -125 15 -12 14 -13 -9 -13 -45 0 -88
-21 -103 -51 -23 -43 -20 -171 3 -192 10 -10 26 -17 35 -17 14 0 17 -12 17
-79 0 -73 13 -139 28 -142 4 -1 34 -3 67 -4 92 -5 95 0 95 162 0 113 2 133 15
133 9 0 33 9 55 20 33 17 59 20 158 20 155 0 152 -3 152 152 0 154 8 148 -188
148 -188 0 -192 -2 -192 -110 l0 -69 -29 17 c-30 17 -30 17 -10 38 28 30 25
78 -7 103 -29 23 -48 25 -81 9z m66 -47 c13 -24 -8 -55 -34 -50 -28 6 -42 34
-26 53 18 22 48 20 60 -3z m401 -91 l0 -110 -95 0 c-57 0 -95 4 -95 10 0 6 25
22 55 37 36 18 55 33 55 45 0 24 -11 23 -70 -7 -34 -17 -58 -23 -78 -19 -16 3
-39 1 -51 -5 -21 -11 -21 -10 -21 67 0 43 3 82 7 85 3 4 71 7 150 7 l143 0 0
-110z m-353 -72 c31 -30 35 -31 66 -20 44 16 57 15 57 -3 0 -8 -19 -24 -41
-36 -36 -18 -45 -19 -66 -8 -38 20 -43 1 -43 -163 0 -123 -2 -148 -15 -148
-11 0 -15 21 -17 107 -3 93 -5 108 -20 111 -15 3 -18 -9 -20 -105 -2 -88 -6
-108 -18 -108 -13 0 -15 28 -18 183 -2 151 -5 182 -17 182 -17 0 -24 -24 -27
-95 -4 -76 -23 -59 -26 24 -4 99 7 111 102 111 65 0 72 -2 103 -32z"/>
</g>
</svg>
