<svg version="1.0" xmlns="http://www.w3.org/2000/svg"
 width="64.000000pt" height="64.000000pt" viewBox="0 0 64.000000 64.000000"
 preserveAspectRatio="xMidYMid meet">

<g transform="translate(0.000000,64.000000) scale(0.100000,-0.100000)"
fill="#000000" stroke="none">
<path d="M130 620 c-24 -24 -25 -38 -4 -68 17 -24 62 -30 82 -10 17 17 15 64
-4 82 -21 22 -50 20 -74 -4z"/>
<path d="M280 620 c-31 -31 -27 -90 9 -124 24 -23 32 -26 49 -17 12 6 30 11
41 11 11 0 46 12 76 27 42 21 60 25 72 17 53 -33 41 -84 -27 -119 -27 -14 -60
-36 -74 -50 l-25 -25 103 0 c137 0 136 -1 136 152 0 154 8 148 -188 148 -139
0 -154 -2 -172 -20z"/>
<path d="M450 475 c-25 -13 -55 -24 -67 -25 -12 0 -33 -5 -47 -11 -22 -10 -29
-8 -61 20 -35 30 -38 31 -131 31 -87 0 -97 -2 -119 -25 -22 -22 -25 -32 -25
-104 0 -85 11 -104 51 -94 18 5 19 -2 19 -105 0 -122 9 -162 39 -162 31 0 40
22 43 105 2 63 6 80 18 80 12 0 16 -18 20 -84 4 -64 9 -86 22 -94 12 -8 21 -7
32 2 13 11 16 40 16 177 l0 164 24 -6 c28 -7 126 39 126 59 0 7 25 25 55 40
30 15 55 34 55 42 0 21 -17 18 -70 -10z"/>
</g>
</svg>
